<?xml version="1.0" standalone="no"?>
<!DOCTYPE svg PUBLIC "-//W3C//DTD SVG 20010904//EN"
 "http://www.w3.org/TR/2001/REC-SVG-20010904/DTD/svg10.dtd">
<svg version="1.0" xmlns="http://www.w3.org/2000/svg"
 width="256.000000pt" height="256.000000pt" viewBox="0 0 256.000000 256.000000"
 preserveAspectRatio="xMidYMid meet">

<g transform="translate(0.000000,256.000000) scale(0.100000,-0.100000)"
fill="#000000" stroke="none">
<path d="M1425 2520 c3 -6 -1 -7 -9 -4 -10 4 -27 -6 -47 -27 -25 -26 -32 -30
-40 -18 -6 10 -9 10 -9 2 0 -7 -5 -12 -11 -10 -6 1 -15 -9 -20 -21 -7 -20 -4
-29 19 -50 16 -15 34 -37 41 -49 17 -32 59 -29 110 7 47 34 59 56 42 73 -6 6
-11 23 -11 37 0 34 -26 70 -51 70 -11 0 -17 -4 -14 -10z"/>
<path d="M668 2322 c-10 -2 -18 -8 -18 -13 0 -14 30 -23 40 -13 13 13 -2 31
-22 26z"/>
<path d="M1242 2299 c2 -6 8 -10 13 -10 5 0 11 4 13 10 2 6 -4 11 -13 11 -9 0
-15 -5 -13 -11z"/>
<path d="M1705 2289 c-4 -6 -5 -13 -2 -16 7 -7 27 6 27 18 0 12 -17 12 -25 -2z"/>
<path d="M634 2235 c3 -9 0 -15 -9 -15 -8 0 -15 -7 -15 -15 0 -17 -17 -20 -22
-4 -2 7 -10 4 -18 -7 -13 -16 -13 -17 0 -9 12 6 13 5 3 -6 -23 -24 -14 -48 29
-79 22 -16 45 -30 50 -30 20 0 78 47 89 72 15 35 -1 62 -51 88 -47 24 -64 25
-56 5z"/>
<path d="M1037 2234 c-8 -8 1 -24 13 -24 4 0 10 7 14 15 5 15 -14 21 -27 9z"/>
<path d="M1822 2138 c6 -18 28 -21 28 -4 0 9 -7 16 -16 16 -9 0 -14 -5 -12
-12z"/>
<path d="M1435 2018 c-11 -7 -26 -17 -32 -24 -7 -7 -23 -21 -36 -31 -36 -28
-47 -53 -34 -80 5 -12 18 -25 29 -29 10 -3 25 -18 33 -34 14 -28 70 -47 81
-28 3 5 15 8 27 6 31 -4 85 77 69 103 -7 10 -12 32 -12 49 0 61 -71 99 -125
68z"/>
<path d="M2250 1946 c0 -2 8 -10 18 -17 15 -13 16 -12 3 4 -13 16 -21 21 -21
13z"/>
<path d="M482 1923 c-10 -4 -10 -8 -1 -19 9 -11 15 -11 25 -3 23 19 6 34 -24
22z"/>
<path d="M2138 1899 c-10 -6 -18 -7 -18 -4 0 14 -95 -77 -103 -99 -9 -23 15
-62 43 -71 11 -3 20 -13 20 -20 0 -8 11 -22 25 -31 24 -16 28 -16 65 1 21 9
51 30 66 46 26 27 27 32 16 62 -7 19 -12 43 -12 54 0 45 -64 84 -102 62z"/>
<path d="M2305 1873 c63 -95 101 -186 136 -323 30 -122 35 -362 9 -481 -29
-132 -50 -200 -67 -206 -10 -4 -13 -13 -8 -32 l6 -25 -22 19 -22 20 7 -22 c5
-14 3 -23 -3 -23 -6 0 -11 4 -11 10 0 5 -7 7 -15 4 -8 -4 -15 -10 -15 -16 0
-5 4 -7 9 -3 5 3 12 1 16 -4 3 -6 13 -8 23 -5 9 2 7 -1 -5 -7 -25 -13 -32 -32
-8 -23 8 4 15 4 15 1 0 -3 -7 -7 -15 -11 -33 -12 -52 74 -24 109 4 6 4 17 -1
25 -7 10 -10 11 -10 3 0 -7 -7 -13 -15 -13 -8 0 -15 -7 -15 -16 0 -9 -9 -18
-21 -21 -13 -4 -16 -8 -10 -13 12 -7 4 -40 -9 -40 -5 0 -6 -10 -3 -22 3 -17 2
-19 -5 -9 -8 11 -12 10 -21 -6 -5 -11 -7 -24 -3 -28 4 -5 -2 -5 -12 -1 -16 5
-17 4 -6 -9 7 -8 22 -15 34 -15 16 0 18 -2 7 -9 -10 -7 -24 -3 -42 10 -24 17
-28 17 -39 4 -7 -9 -10 -18 -6 -22 3 -3 6 0 6 7 0 11 3 11 12 2 7 -7 21 -12
31 -12 13 0 17 -5 13 -16 -3 -9 -6 -20 -6 -25 0 -6 -5 -7 -11 -4 -6 4 -8 13
-5 21 4 10 -3 13 -26 11 -17 -1 -33 -8 -36 -15 -5 -15 24 -16 34 -1 4 8 9 7
15 -2 14 -23 10 -32 -8 -18 -15 12 -16 12 -10 -4 6 -17 5 -17 -15 -2 -25 17
-42 20 -33 5 3 -6 0 -10 -7 -10 -7 0 -4 -6 7 -12 11 -7 26 -18 33 -25 11 -11
10 -13 -8 -13 -12 0 -30 -5 -41 -11 -17 -8 -23 -7 -34 8 -12 17 -14 16 -34 -7
-11 -14 -18 -31 -16 -38 3 -8 0 -10 -8 -5 -18 11 -37 12 -37 2 0 -5 6 -9 13
-10 6 0 1 -4 -11 -10 -13 -5 -27 -7 -32 -4 -4 2 -15 -4 -25 -15 -10 -11 -21
-17 -25 -15 -4 3 -10 -1 -13 -9 -3 -8 1 -13 11 -12 11 1 17 -7 18 -22 1 -12
-1 -20 -4 -17 -3 2 -11 0 -19 -6 -10 -9 -13 -8 -13 4 0 8 6 18 13 20 7 3 5 6
-5 6 -13 1 -16 9 -15 39 2 26 -2 39 -10 39 -7 0 -13 -5 -13 -11 -1 -24 -30 30
-30 54 0 32 -26 64 -59 73 -57 14 -171 -71 -171 -128 0 -30 37 -85 57 -85 6 0
16 -7 23 -15 7 -8 23 -15 36 -15 28 0 41 -17 24 -33 -9 -9 -11 -9 -8 2 2 7 -3
16 -10 18 -7 3 -11 -1 -10 -9 2 -8 -4 -12 -16 -10 -11 2 -17 -1 -14 -10 3 -7
-1 -19 -8 -26 -7 -7 -11 -18 -8 -25 2 -7 -9 -18 -27 -24 l-32 -12 25 27 c14
15 28 36 32 46 6 19 6 19 -12 3 -10 -9 -27 -17 -37 -17 -10 0 -33 -11 -51 -25
-18 -14 -41 -25 -51 -25 -29 0 -67 -30 -54 -43 7 -7 15 -6 26 3 8 7 15 9 15 5
0 -11 -32 -34 -47 -35 -7 0 -13 7 -13 15 0 8 -5 15 -11 15 -5 0 -7 -6 -3 -12
6 -10 4 -10 -7 0 -18 16 -31 15 -27 -2 2 -8 0 -15 -4 -15 -38 -4 -39 1 -7 24
19 13 40 29 47 35 8 7 12 7 12 0 0 -5 4 -10 10 -10 5 0 6 7 3 17 -4 10 -2 14
5 9 6 -3 14 -1 17 5 4 5 13 8 21 5 8 -3 14 -1 14 3 0 13 -29 21 -35 10 -4 -5
-10 -7 -14 -4 -5 2 -16 -4 -26 -15 -21 -23 -45 -26 -45 -6 0 8 -6 21 -14 29
-8 7 -16 31 -18 53 -3 36 -6 40 -43 51 -34 10 -45 10 -82 -7 -24 -10 -46 -19
-50 -19 -3 1 -10 -6 -15 -15 -5 -9 -13 -14 -19 -11 -5 3 -6 -1 -3 -9 9 -23 -9
-20 -30 5 -15 18 -20 19 -27 8 -4 -8 -12 -14 -17 -14 -5 0 -16 -8 -26 -17 -20
-21 -47 -23 -64 -6 -9 9 -8 14 1 22 7 6 10 10 8 9 -2 -1 -19 4 -38 12 -44 18
-44 18 -37 0 5 -12 2 -14 -12 -8 -17 6 -17 5 -5 -10 16 -21 5 -23 -15 -3 -12
13 -12 16 3 25 10 5 15 13 11 17 -5 4 -2 14 5 22 9 12 6 11 -15 -2 -20 -13
-28 -14 -34 -5 -5 8 -3 10 7 4 12 -8 12 -6 0 8 -7 9 -17 14 -22 11 -5 -3 -9 0
-9 6 0 7 -6 10 -14 7 -11 -4 -13 0 -7 21 8 34 3 82 -10 82 -5 0 -9 -7 -9 -15
0 -8 -6 -15 -12 -15 -9 0 -10 -2 -2 -8 18 -11 2 -43 -16 -32 -13 9 -13 10 0
10 13 0 13 2 1 9 -8 5 -29 8 -47 6 -30 -3 -33 -1 -24 15 7 13 6 20 -2 22 -7 3
4 22 26 46 l38 41 -12 58 c-16 74 -46 106 -90 93 -16 -5 -30 -7 -30 -4 0 9
-45 -19 -87 -54 -33 -26 -43 -30 -43 -18 0 9 -7 19 -15 22 -8 4 -12 10 -9 15
3 5 -2 9 -11 9 -9 0 -14 4 -11 9 7 10 -22 24 -34 16 -4 -3 -10 4 -13 15 -3 11
-1 20 4 20 4 0 6 7 2 16 -3 9 0 20 7 24 15 9 23 40 10 40 -5 0 -15 -7 -24 -15
-17 -17 -42 -20 -51 -5 -5 7 -11 8 -18 1 -8 -6 -18 -5 -30 4 -15 10 -15 14 -3
18 8 3 17 1 20 -6 3 -8 5 -8 5 1 1 8 -8 16 -20 19 -14 4 -17 8 -9 13 7 4 9 13
5 20 -6 9 -11 7 -19 -9 -11 -21 -12 -21 -28 -2 -15 18 -15 20 0 27 9 4 20 7
24 6 4 -1 5 5 2 13 -4 8 -14 15 -23 15 -14 0 -17 11 -16 69 0 38 -3 67 -7 64
-5 -2 -8 -11 -8 -19 0 -8 -7 -14 -15 -14 -9 0 -20 -10 -25 -22 -5 -14 -9 -17
-10 -8 0 13 -1 13 -10 0 -13 -21 -13 -3 1 22 10 18 9 20 -5 15 -13 -5 -16 0
-17 21 0 15 -3 78 -5 139 -4 75 -1 118 6 130 11 17 11 17 6 -1 -5 -13 -2 -17
9 -12 8 3 15 1 15 -5 0 -6 4 -8 9 -5 5 4 7 -3 4 -13 -3 -11 0 -28 6 -38 8 -14
10 -15 11 -3 0 12 8 15 33 12 26 -3 43 4 78 30 28 22 43 41 42 54 -6 54 -17
91 -31 107 -15 17 -48 25 -38 8 10 -16 -24 -34 -71 -38 -25 -2 -53 -9 -61 -15
-31 -26 4 231 46 338 32 81 34 91 13 54 -11 -19 -32 -71 -46 -115 -53 -166
-70 -613 -30 -759 67 -243 361 -583 628 -729 190 -103 300 -125 647 -129 209
-2 230 -1 290 20 37 12 85 38 113 61 26 22 71 47 100 56 155 51 308 174 375
302 18 34 49 81 69 105 143 169 214 584 149 869 -30 133 -73 240 -131 330 -24
38 -47 69 -50 69 -3 0 6 -17 20 -37z m-2165 -883 c0 -5 -5 -10 -11 -10 -5 0
-7 5 -4 10 3 6 8 10 11 10 2 0 4 -4 4 -10z m42 -57 c-6 -2 -10 -8 -8 -12 3 -4
-1 -8 -8 -8 -8 0 -12 6 -9 14 3 7 13 13 22 12 10 0 11 -2 3 -6z m24 -80 c-1
-26 -11 -30 -19 -9 -3 8 -1 17 6 20 7 2 5 5 -4 5 -9 1 -19 7 -22 15 -4 11 -1
11 18 2 15 -7 22 -18 21 -33z m28 -48 c-7 -18 7 -20 24 -3 9 9 12 8 12 -6 0
-12 -6 -16 -22 -14 -22 3 -39 38 -19 38 6 0 8 -7 5 -15z m66 -14 c0 -6 -4 -13
-10 -16 -5 -3 -10 1 -10 9 0 9 5 16 10 16 6 0 10 -4 10 -9z m113 -105 c4 -10
1 -13 -8 -9 -8 3 -12 9 -9 14 7 12 11 11 17 -5z m1812 -37 c-10 -15 -25 -10
-19 6 4 8 10 12 15 9 5 -3 7 -10 4 -15z m-1848 -35 c-3 -3 -12 -4 -19 -1 -8 3
-5 6 6 6 11 1 17 -2 13 -5z m1833 -28 c0 -8 -6 -18 -13 -25 -11 -8 -13 -5 -9
19 4 29 22 33 22 6z m-44 -32 c-4 -9 -9 -15 -11 -12 -3 3 -3 13 1 22 4 9 9 15
11 12 3 -3 3 -13 -1 -22z m-140 -19 c-3 -8 0 -15 6 -15 6 0 9 -2 6 -5 -3 -3
-13 -3 -22 1 -13 5 -14 9 -5 20 15 18 23 18 15 -1z m79 -25 c3 -5 1 -10 -4
-10 -6 0 -11 5 -11 10 0 6 2 10 4 10 3 0 8 -4 11 -10z m30 1 c3 -5 1 -12 -5
-16 -5 -3 -10 1 -10 9 0 18 6 21 15 7z m-19 -39 c-2 -2 -13 1 -24 7 -30 16
-49 13 -26 -3 10 -8 16 -17 13 -21 -11 -10 -39 24 -33 40 5 12 11 11 40 -2 18
-9 32 -18 30 -21z m-1521 8 c3 -5 1 -10 -4 -10 -6 0 -11 5 -11 10 0 6 2 10 4
10 3 0 8 -4 11 -10z m1399 -5 c-4 -8 -10 -15 -15 -15 -10 0 1 -32 14 -41 5 -3
2 -9 -7 -12 -10 -4 -16 -1 -16 8 0 8 -8 16 -17 16 -16 1 -17 2 -1 6 10 2 15
10 11 19 -3 7 -9 11 -14 8 -5 -3 -9 0 -9 6 0 7 8 9 19 5 11 -3 22 -1 26 5 9
15 15 12 9 -5z m60 -37 c-7 -11 -7 -11 -24 22 -13 25 -13 25 8 6 12 -10 19
-23 16 -28z m-26 3 c3 -8 -1 -12 -9 -9 -7 2 -15 10 -17 17 -3 8 1 12 9 9 7 -2
15 -10 17 -17z m-106 1 c-9 -6 -7 -14 8 -30 12 -12 16 -22 10 -22 -6 0 -13 7
-17 16 -5 13 -7 13 -14 2 -6 -8 -8 -5 -5 12 3 14 5 26 5 28 1 1 7 2 14 2 9 0
9 -2 -1 -8z m-1155 -74 c2 -17 0 -19 -7 -8 -5 8 -6 18 -4 22 8 12 10 10 11
-14z m978 -4 c15 -10 25 -12 25 -5 0 6 7 11 16 11 13 0 14 -3 4 -15 -6 -8 -9
-19 -5 -25 3 -5 -1 -10 -10 -10 -9 0 -13 5 -10 10 3 6 0 10 -8 10 -8 0 -22 9
-32 20 -22 24 -13 26 20 4z m169 0 c9 -8 13 -21 9 -27 -4 -7 -8 -6 -11 3 -2 8
-11 21 -20 28 -9 6 -11 12 -5 12 7 0 19 -7 27 -16z m50 -13 c-2 -3 -12 3 -22
13 -16 17 -16 18 5 5 12 -7 20 -15 17 -18z m60 17 c-3 -4 -12 -8 -20 -8 -8 0
-14 4 -14 8 0 4 9 8 19 8 11 0 17 -4 15 -8z m-124 -46 c0 -14 -2 -14 -9 -3 -7
11 -11 10 -19 -5 -9 -16 -13 -17 -24 -5 -8 8 -8 11 -1 7 6 -3 14 -2 18 4 3 5
0 10 -7 11 -7 0 -4 4 7 8 25 10 35 5 35 -17z m-832 -16 c6 -4 11 -15 11 -24
-1 -15 -2 -15 -6 1 -5 18 -15 22 -26 10 -4 -3 -2 -11 3 -18 7 -8 5 -12 -4 -12
-8 0 -13 7 -11 16 1 9 -1 21 -6 27 -10 12 19 13 39 0z m635 2 c4 -10 7 -10 18
0 7 6 18 12 24 12 5 0 3 -5 -5 -10 -13 -9 -13 -11 0 -20 20 -13 8 -13 -26 0
-22 9 -29 8 -36 -5 -5 -8 -13 -13 -18 -10 -5 3 -2 14 8 25 21 22 29 24 35 8z
m-123 -26 c0 -10 -22 -32 -32 -32 -13 0 -9 28 5 33 19 8 27 8 27 -1z m-572
-26 c-1 -14 -6 -22 -10 -20 -4 3 -5 11 -1 19 7 20 -7 19 -24 -2 -8 -10 -12
-12 -8 -5 3 6 0 12 -7 13 -15 1 21 17 39 18 8 1 12 -9 11 -23z m802 20 c0 -2
-7 -7 -16 -10 -8 -3 -12 -2 -9 4 6 10 25 14 25 6z m-150 -42 c0 -8 -4 -14 -9
-14 -6 0 -9 9 -8 19 1 22 17 18 17 -5z m-610 6 c0 -5 -4 -10 -10 -10 -5 0 -10
5 -10 10 0 6 5 10 10 10 6 0 10 -4 10 -10z m26 1 c-4 -5 -1 -11 6 -13 8 -3 6
-6 -4 -10 -11 -5 -15 -2 -13 10 5 23 4 22 11 22 3 0 3 -4 0 -9z m454 -2 c0 -5
-5 -7 -12 -3 -6 4 -17 -1 -24 -11 -8 -10 -17 -15 -21 -12 -8 8 26 36 45 37 6
0 12 -5 12 -11z m200 1 c0 -5 -2 -10 -4 -10 -3 0 -8 5 -11 10 -3 6 -1 10 4 10
6 0 11 -4 11 -10z m-30 -4 c0 -3 -4 -8 -10 -11 -5 -3 -10 -1 -10 4 0 6 5 11
10 11 6 0 10 -2 10 -4z m-173 -42 c2 -13 1 -15 -4 -4 -3 8 -11 19 -17 23 -7 6
-6 7 4 4 8 -2 16 -12 17 -23z m38 16 c10 -17 -5 -50 -23 -50 -10 0 -13 3 -6 8
17 11 24 40 11 46 -9 3 -9 5 0 5 6 1 15 -4 18 -9z m83 -18 c6 -18 -15 -14 -22
4 -4 10 -1 14 6 12 6 -2 14 -10 16 -16z m-524 -8 c3 -8 2 -12 -4 -9 -6 3 -10
10 -10 16 0 14 7 11 14 -7z"/>
<path d="M196 1883 c-6 -14 -5 -15 5 -6 7 7 10 15 7 18 -3 3 -9 -2 -12 -12z"/>
<path d="M789 1832 c-7 -15 -24 -40 -36 -55 -13 -16 -23 -35 -23 -42 0 -21
100 -105 125 -105 13 0 25 5 27 11 2 6 17 13 33 15 40 4 65 37 65 85 0 54 -32
86 -79 79 -8 -1 -18 4 -22 12 -6 8 -9 9 -9 2 0 -7 -8 -15 -17 -19 -15 -5 -16
-4 -5 6 6 7 12 18 12 23 0 6 -5 5 -12 -2 -15 -15 -38 -16 -38 -1 0 5 4 8 9 4
5 -3 12 -2 15 3 2 4 -3 8 -13 9 -11 1 -24 -10 -32 -25z"/>
<path d="M1210 1810 c0 -5 7 -10 15 -10 8 0 15 5 15 10 0 6 -7 10 -15 10 -8 0
-15 -4 -15 -10z"/>
<path d="M1655 1727 c-12 -9 -15 -19 -10 -28 5 -8 5 -11 0 -7 -11 10 -45 -10
-45 -27 0 -8 10 -20 23 -26 12 -6 31 -20 42 -30 22 -20 49 -20 68 1 10 10 9
12 -6 6 -17 -5 -18 -1 -13 41 3 27 2 41 -2 32 -5 -12 -13 -14 -29 -8 -13 5
-23 11 -23 15 0 3 7 3 16 0 14 -5 15 -4 5 8 -7 8 -10 20 -6 26 8 14 3 13 -20
-3z m35 -61 c0 -2 -7 -6 -15 -10 -8 -3 -15 -1 -15 4 0 6 7 10 15 10 8 0 15 -2
15 -4z"/>
<path d="M1420 1702 c0 -7 -4 -10 -10 -7 -5 3 -10 -1 -10 -9 0 -20 19 -31 32
-18 7 7 7 16 -1 29 -6 10 -11 13 -11 5z"/>
<path d="M297 1683 c-22 -6 -17 -27 6 -31 12 -2 17 3 17 17 0 12 -1 20 -2 20
-2 -1 -11 -3 -21 -6z"/>
<path d="M2189 1641 c-22 -18 -23 -21 -8 -36 21 -21 59 -11 59 14 0 33 -25 44
-51 22z"/>
<path d="M178 1632 c-20 -4 -23 -17 -7 -28 12 -7 33 10 28 23 -2 5 -12 7 -21
5z"/>
<path d="M1012 1631 c-10 -6 -10 -10 2 -20 17 -14 36 -7 36 15 0 15 -18 18
-38 5z"/>
<path d="M2001 1621 c-10 -6 -10 -10 -1 -16 13 -8 24 -1 19 14 -3 6 -10 7 -18
2z"/>
<path d="M583 1563 c-14 -5 -17 -29 -5 -37 4 -2 14 -1 21 3 16 11 2 40 -16 34z"/>
<path d="M1557 1542 c-10 -10 -17 -23 -17 -29 0 -5 -9 -18 -20 -28 -25 -23
-25 -45 -1 -77 26 -33 90 -66 99 -52 4 6 20 17 37 25 39 19 59 58 45 93 -9 25
-91 86 -115 86 -7 0 -19 -8 -28 -18z"/>
<path d="M520 1410 c0 -5 5 -10 11 -10 5 0 7 5 4 10 -3 6 -8 10 -11 10 -2 0
-4 -4 -4 -10z"/>
<path d="M2210 1411 c0 -6 5 -13 11 -16 7 -5 4 -14 -7 -26 -13 -14 -20 -16
-30 -8 -15 12 -17 9 -27 -39 -4 -17 4 -29 31 -52 46 -38 68 -38 115 1 31 26
38 37 35 62 -2 25 -12 36 -43 54 -23 13 -48 20 -59 17 -12 -4 -16 -2 -12 5 4
6 2 11 -3 11 -6 0 -11 -4 -11 -9z"/>
<path d="M2095 1380 c3 -5 8 -10 11 -10 2 0 4 5 4 10 0 6 -5 10 -11 10 -5 0
-7 -4 -4 -10z"/>
<path d="M662 1364 c-7 -8 -8 -14 -3 -14 10 0 25 19 20 25 -2 1 -10 -3 -17
-11z"/>
<path d="M618 1272 c-7 -11 -20 -21 -27 -24 -13 -4 -13 -5 0 -10 10 -4 21 5
31 23 19 32 16 39 -4 11z"/>
<path d="M908 1276 c-13 -9 -14 -16 -6 -24 13 -13 38 -5 38 13 0 21 -13 25
-32 11z"/>
<path d="M200 1230 c0 -5 5 -10 10 -10 6 0 10 5 10 10 0 6 -4 10 -10 10 -5 0
-10 -4 -10 -10z"/>
<path d="M1546 1225 c-13 -13 -13 -20 -3 -35 14 -23 26 -25 51 -7 15 11 17 17
7 35 -14 26 -34 28 -55 7z"/>
<path d="M1003 1199 c-49 -24 -101 -74 -109 -105 -8 -30 -1 -60 14 -57 7 2 12
-4 12 -13 0 -10 6 -14 14 -11 18 7 58 -47 45 -60 -7 -7 -3 -12 11 -16 17 -4
20 -2 15 12 -4 14 0 18 17 18 55 -1 147 88 119 116 -17 17 -14 47 4 41 20 -8
45 13 45 38 0 24 -23 33 -48 19 -15 -8 -23 -7 -32 3 -24 30 -66 36 -107 15z"/>
<path d="M300 1179 c0 -5 5 -7 10 -4 6 3 10 8 10 11 0 2 -4 4 -10 4 -5 0 -10
-5 -10 -11z"/>
<path d="M555 1179 c-10 -15 3 -25 16 -12 7 7 7 13 1 17 -6 3 -14 1 -17 -5z"/>
<path d="M591 1174 c0 -11 3 -14 6 -6 3 7 2 16 -1 19 -3 4 -6 -2 -5 -13z"/>
<path d="M511 1108 c-20 -13 -30 -26 -27 -35 3 -8 1 -11 -4 -8 -11 7 -13 -18
-4 -52 5 -17 14 -23 33 -23 l26 1 -25 14 c-26 15 -22 18 20 16 21 -2 22 0 10
9 -12 10 -11 11 8 7 12 -3 22 -2 22 2 0 5 9 19 21 32 14 17 17 25 8 28 -7 2
-15 -1 -17 -7 -2 -7 -9 -12 -17 -12 -7 0 -18 -7 -25 -15 -7 -8 -16 -15 -21
-15 -5 0 -9 7 -9 15 0 8 5 15 10 15 6 0 10 7 10 15 0 9 6 15 13 14 23 -3 40 1
33 8 -13 13 -34 11 -65 -9z"/>
<path d="M1150 1101 c0 -6 5 -13 10 -16 6 -3 10 1 10 9 0 9 -4 16 -10 16 -5 0
-10 -4 -10 -9z"/>
<path d="M1177 1077 c-3 -8 1 -21 9 -28 9 -7 22 -25 30 -41 8 -16 19 -26 24
-23 5 3 12 0 16 -6 4 -8 3 -9 -4 -5 -7 4 -12 2 -12 -3 0 -6 3 -11 8 -11 7 0 9
-14 13 -126 2 -86 -22 -145 -76 -184 -23 -16 -35 -34 -35 -50 -1 -25 -1 -25
-10 -2 -11 26 -11 26 -45 10 -30 -14 -32 -29 -5 -53 18 -16 22 -17 38 -2 20
17 100 13 117 -6 13 -16 71 -21 80 -8 3 6 1 11 -5 11 -7 0 -10 6 -7 13 2 6 0
22 -4 35 -5 14 -5 22 2 22 6 0 8 4 5 9 -3 5 3 19 13 33 13 15 17 33 14 51 -3
16 -1 27 6 27 5 0 8 7 5 15 -4 8 -1 15 6 15 6 0 8 4 5 10 -7 12 8 42 20 41 5
-1 10 5 11 14 2 12 -2 13 -18 4 -11 -6 -22 -8 -26 -5 -3 3 0 6 6 6 6 0 9 7 6
15 -4 8 -1 15 7 15 7 0 10 2 7 5 -3 3 -12 3 -20 0 -10 -4 -14 -18 -12 -45 2
-41 -19 -62 -40 -39 -8 9 -8 10 2 5 16 -10 28 22 13 37 -15 15 -14 30 1 21 7
-5 9 -2 5 9 -3 9 -1 18 6 21 7 2 3 5 -8 5 -17 1 -17 3 -5 11 9 6 10 10 3 10
-6 0 -15 -5 -18 -10 -9 -14 -45 7 -45 25 0 9 9 15 23 15 12 0 29 5 37 11 12 9
12 10 -3 5 -13 -4 -20 0 -24 14 -3 11 -12 20 -19 20 -8 0 -17 7 -21 16 -3 8
-12 13 -19 10 -14 -5 -18 5 -15 33 2 7 -3 10 -8 6 -6 -3 -15 4 -19 16 -7 18
-10 19 -15 6z m133 -200 c0 -7 -7 -22 -15 -33 -15 -19 -15 -19 -12 1 4 34 27
61 27 32z m10 -57 c0 -5 -8 -10 -17 -10 -15 0 -16 2 -3 10 19 12 20 12 20 0z
m15 -130 c-3 -5 -12 -10 -18 -10 -7 0 -6 4 3 10 19 12 23 12 15 0z"/>
<path d="M1660 1074 c0 -11 6 -13 23 -9 36 12 40 22 7 23 -20 0 -30 -4 -30
-14z"/>
<path d="M1657 1000 c13 -49 21 -64 44 -76 17 -8 29 -23 29 -34 0 -10 5 -22
10 -25 6 -3 10 -14 10 -24 0 -19 -31 -38 -115 -70 l-50 -20 77 0 c85 -1 125
10 145 39 8 11 23 20 33 20 10 0 21 6 23 13 4 10 6 10 6 0 1 -7 8 -13 16 -13
14 0 14 3 0 24 -12 18 -13 25 -4 28 14 5 4 28 -12 28 -6 0 -7 -5 -3 -12 4 -7
3 -8 -5 -4 -6 4 -9 12 -5 17 9 16 12 89 3 83 -5 -3 -9 -19 -9 -35 0 -17 -6
-32 -15 -35 -8 -4 -12 -11 -8 -17 3 -6 1 -7 -5 -3 -6 4 -9 13 -5 21 5 14 -7
20 -30 16 -5 -1 -6 3 -2 9 4 6 4 24 0 40 -5 25 -12 29 -43 32 -34 3 -35 4 -19
20 9 9 17 23 17 30 0 10 -2 10 -9 -1 -8 -13 -12 -13 -27 0 -16 13 -17 12 -12
-8 4 -13 2 -23 -3 -23 -5 0 -9 6 -9 14 0 11 -20 26 -35 26 -1 0 4 -27 12 -60z
m73 -20 c0 -5 -5 -10 -11 -10 -5 0 -7 5 -4 10 3 6 8 10 11 10 2 0 4 -4 4 -10z
m43 -37 c-4 -11 -8 -12 -13 -2 -6 8 -9 6 -13 -7 -3 -13 -4 -10 -4 7 1 20 5 25
18 22 11 -3 15 -11 12 -20z m22 -43 c3 -5 1 -10 -4 -10 -6 0 -11 5 -11 10 0 6
2 10 4 10 3 0 8 -4 11 -10z"/>
<path d="M1768 1048 c10 -13 10 -17 0 -21 -7 -3 -3 -4 9 -4 12 1 25 7 28 15 3
7 0 10 -6 7 -5 -4 -18 -1 -27 7 -15 12 -16 11 -4 -4z"/>
<path d="M2200 1049 c0 -5 5 -7 10 -4 6 3 10 8 10 11 0 2 -4 4 -10 4 -5 0 -10
-5 -10 -11z"/>
<path d="M2034 1007 c-14 -12 -29 -40 -35 -62 -14 -59 -19 -146 -8 -140 5 4 9
-1 9 -9 0 -10 15 -17 48 -22 26 -5 50 -9 55 -10 4 -1 10 -2 15 -3 4 -1 0 -6
-8 -11 -12 -7 -10 -9 8 -7 12 1 21 6 18 12 -2 6 5 12 15 12 11 1 17 -2 14 -8
-4 -5 1 -9 9 -9 9 0 16 5 16 11 0 6 6 17 14 24 8 9 14 40 15 86 2 86 -4 109
-28 109 -10 0 -31 10 -46 22 -38 30 -80 31 -111 5z"/>
<path d="M2380 1021 c0 -7 -4 -10 -9 -6 -5 3 -12 1 -16 -4 -3 -6 4 -15 15 -21
16 -9 22 -8 26 5 4 9 2 21 -5 28 -8 8 -11 8 -11 -2z"/>
<path d="M270 1005 c0 -8 9 -15 20 -15 11 0 20 7 20 15 0 8 -9 15 -20 15 -11
0 -20 -7 -20 -15z"/>
<path d="M1795 989 c-4 -6 -5 -12 -2 -15 2 -3 7 2 10 11 7 17 1 20 -8 4z"/>
<path d="M1805 963 c-7 -21 -7 -23 9 -23 7 0 16 8 18 18 6 22 -18 26 -27 5z"/>
<path d="M2342 960 c-6 -10 -8 -21 -3 -24 5 -3 11 4 14 16 8 29 4 32 -11 8z"/>
<path d="M2390 929 c0 -5 5 -7 10 -4 6 3 10 8 10 11 0 2 -4 4 -10 4 -5 0 -10
-5 -10 -11z"/>
<path d="M505 901 c-3 -5 -1 -12 5 -16 5 -3 10 1 10 9 0 18 -6 21 -15 7z"/>
<path d="M700 900 c0 -5 5 -10 10 -10 6 0 10 5 10 10 0 6 -4 10 -10 10 -5 0
-10 -4 -10 -10z"/>
<path d="M815 883 c-14 -32 -13 -39 5 -39 9 0 17 6 17 12 0 7 -7 9 -16 6 -14
-5 -14 -4 -2 11 8 10 12 20 9 23 -3 3 -9 -3 -13 -13z"/>
<path d="M2366 886 c10 -8 21 -12 24 -10 5 6 -21 24 -34 24 -6 0 -1 -6 10 -14z"/>
<path d="M1897 863 c-12 -11 -8 -23 7 -23 8 0 18 4 21 10 4 6 -1 7 -11 3 -12
-4 -15 -3 -10 5 8 13 3 16 -7 5z"/>
<path d="M468 853 c-10 -3 -18 -9 -18 -14 0 -15 30 -23 43 -10 14 14 -2 29
-25 24z"/>
<path d="M757 840 c-3 -13 0 -20 8 -20 8 0 13 9 12 20 -1 11 -4 20 -8 20 -4 0
-9 -9 -12 -20z"/>
<path d="M1415 850 c3 -5 8 -10 11 -10 2 0 4 5 4 10 0 6 -5 10 -11 10 -5 0 -7
-4 -4 -10z"/>
<path d="M802 823 c-6 -2 -10 -9 -6 -14 3 -5 -2 -9 -11 -9 -9 0 -14 -4 -11 -9
3 -5 -1 -12 -10 -15 -11 -4 -15 -2 -11 8 5 14 -10 36 -25 36 -4 0 -8 -7 -8
-16 0 -8 3 -13 8 -10 4 2 7 -11 6 -29 -2 -34 15 -98 30 -112 4 -4 5 -1 2 7 -8
19 47 78 79 86 20 5 25 13 25 36 0 20 -4 27 -12 22 -8 -5 -9 -2 -5 9 5 13 1
17 -16 16 -12 0 -28 -3 -35 -6z"/>
<path d="M1386 781 c-8 -12 14 -28 37 -28 9 0 14 3 11 6 -5 6 -10 7 -36 10 -9
1 -8 4 2 11 9 6 10 10 3 10 -6 0 -14 -4 -17 -9z"/>
<path d="M468 743 c7 -3 16 -2 19 1 4 3 -2 6 -13 5 -11 0 -14 -3 -6 -6z"/>
<path d="M1671 716 c-26 -31 14 -71 45 -45 21 17 14 53 -12 57 -11 2 -26 -4
-33 -12z"/>
<path d="M1849 611 c-19 -15 -20 -20 -8 -39 8 -12 19 -22 24 -22 32 0 49 63
20 73 -7 3 -24 -2 -36 -12z"/>
<path d="M1535 580 c-3 -5 1 -10 9 -10 9 0 16 5 16 10 0 6 -4 10 -9 10 -6 0
-13 -4 -16 -10z"/>
<path d="M2045 580 c-8 -13 20 -24 41 -16 20 8 9 26 -16 26 -10 0 -22 -5 -25
-10z"/>
<path d="M765 540 c-3 -5 -1 -10 4 -10 6 0 11 5 11 10 0 6 -2 10 -4 10 -3 0
-8 -4 -11 -10z"/>
<path d="M813 528 c-26 -12 -29 -28 -11 -46 29 -29 72 -3 57 36 -9 24 -14 26
-46 10z"/>
<path d="M1460 480 c0 -5 5 -10 11 -10 5 0 7 5 4 10 -3 6 -8 10 -11 10 -2 0
-4 -4 -4 -10z"/>
<path d="M788 433 c7 -3 16 -2 19 1 4 3 -2 6 -13 5 -11 0 -14 -3 -6 -6z"/>
<path d="M889 394 c-10 -13 -10 -16 -1 -10 9 5 15 1 19 -13 3 -13 14 -22 29
-23 13 -1 39 -3 57 -4 17 -1 39 0 47 3 19 8 27 10 41 12 5 0 7 6 4 11 -4 6
-11 8 -16 5 -5 -4 -9 -1 -9 4 0 6 -5 11 -11 11 -5 0 -7 -6 -3 -12 6 -10 5 -10
-7 -1 -14 12 -46 21 -105 30 -21 3 -34 -1 -45 -13z"/>
<path d="M1555 400 c-3 -5 -2 -10 4 -10 5 0 13 5 16 10 3 6 2 10 -4 10 -5 0
-13 -4 -16 -10z"/>
<path d="M1320 356 c0 -2 7 -6 15 -10 8 -3 15 -1 15 4 0 6 -7 10 -15 10 -8 0
-15 -2 -15 -4z"/>
<path d="M1455 349 c-4 -6 -5 -12 -2 -15 2 -3 7 2 10 11 7 17 1 20 -8 4z"/>
<path d="M1482 340 c0 -14 2 -19 5 -12 2 6 2 18 0 25 -3 6 -5 1 -5 -13z"/>
<path d="M1370 340 c-11 -22 -5 -46 11 -47 11 -1 19 2 19 8 0 5 -4 9 -9 9 -5
0 -12 8 -14 18 -3 9 -6 15 -7 12z"/>
<path d="M1532 320 c-11 -18 -10 -19 13 -8 13 6 22 15 19 19 -8 14 -18 11 -32
-11z"/>
<path d="M960 310 c0 -6 7 -10 15 -10 8 0 15 2 15 4 0 2 -7 6 -15 10 -8 3 -15
1 -15 -4z"/>
<path d="M1485 300 c3 -5 11 -10 16 -10 6 0 7 5 4 10 -3 6 -11 10 -16 10 -6 0
-7 -4 -4 -10z"/>
</g>
</svg>
